<svg xmlns="http://www.w3.org/2000/svg" xmlns:xlink="http://www.w3.org/1999/xlink" width="500" zoomAndPan="magnify" viewBox="0 0 375 374.999991" height="500" preserveAspectRatio="xMidYMid meet" version="1.0"><defs><g/></defs><rect x="-37.5" width="450" fill="#ffffff" y="-37.499999" height="449.999989" fill-opacity="1"/><rect x="-37.5" width="450" fill="#141313" y="-37.499999" height="449.999989" fill-opacity="1"/><g fill="#bfe021" fill-opacity="1"><g transform="translate(119.191206, 254.40924)"><g><path d="M 12.765625 0.46875 C 10.753906 0.46875 9.003906 0.078125 7.515625 -0.703125 C 6.035156 -1.492188 4.890625 -2.613281 4.078125 -4.0625 C 3.265625 -5.507812 2.859375 -7.226562 2.859375 -9.21875 C 2.859375 -11.195312 3.265625 -12.910156 4.078125 -14.359375 C 4.890625 -15.804688 6.035156 -16.921875 7.515625 -17.703125 C 9.003906 -18.492188 10.753906 -18.890625 12.765625 -18.890625 C 15.171875 -18.890625 17.367188 -18.253906 19.359375 -16.984375 L 17.765625 -13.234375 C 16.804688 -13.773438 15.957031 -14.15625 15.21875 -14.375 C 14.488281 -14.59375 13.710938 -14.703125 12.890625 -14.703125 C 11.128906 -14.703125 9.789062 -14.238281 8.875 -13.3125 C 7.96875 -12.382812 7.515625 -11.019531 7.515625 -9.21875 C 7.515625 -7.40625 7.96875 -6.035156 8.875 -5.109375 C 9.789062 -4.179688 11.128906 -3.71875 12.890625 -3.71875 C 13.796875 -3.71875 14.644531 -3.84375 15.4375 -4.09375 C 16.238281 -4.351562 17.171875 -4.804688 18.234375 -5.453125 L 19.9375 -1.8125 C 17.789062 -0.289062 15.398438 0.46875 12.765625 0.46875 Z M 12.765625 0.46875 "/></g></g></g><g fill="#bfe021" fill-opacity="1"><g transform="translate(141.6345, 254.40924)"><g><path d="M 11.21875 0.46875 C 9.363281 0.46875 7.726562 0.0625 6.3125 -0.75 C 4.894531 -1.5625 3.785156 -2.695312 2.984375 -4.15625 C 2.179688 -5.613281 1.78125 -7.300781 1.78125 -9.21875 C 1.78125 -11.144531 2.179688 -12.832031 2.984375 -14.28125 C 3.785156 -15.726562 4.894531 -16.859375 6.3125 -17.671875 C 7.726562 -18.484375 9.363281 -18.890625 11.21875 -18.890625 C 13.082031 -18.890625 14.722656 -18.484375 16.140625 -17.671875 C 17.554688 -16.859375 18.664062 -15.726562 19.46875 -14.28125 C 20.269531 -12.832031 20.671875 -11.144531 20.671875 -9.21875 C 20.671875 -7.300781 20.269531 -5.613281 19.46875 -4.15625 C 18.664062 -2.695312 17.554688 -1.5625 16.140625 -0.75 C 14.722656 0.0625 13.082031 0.46875 11.21875 0.46875 Z M 11.21875 -3.71875 C 12.71875 -3.71875 13.890625 -4.203125 14.734375 -5.171875 C 15.585938 -6.140625 16.015625 -7.488281 16.015625 -9.21875 C 16.015625 -10.9375 15.585938 -12.28125 14.734375 -13.25 C 13.890625 -14.21875 12.71875 -14.703125 11.21875 -14.703125 C 9.726562 -14.703125 8.554688 -14.21875 7.703125 -13.25 C 6.847656 -12.28125 6.421875 -10.9375 6.421875 -9.21875 C 6.421875 -7.488281 6.847656 -6.140625 7.703125 -5.171875 C 8.554688 -4.203125 9.726562 -3.71875 11.21875 -3.71875 Z M 11.21875 -3.71875 "/></g></g></g><g fill="#bfe021" fill-opacity="1"><g transform="translate(164.077793, 254.40924)"><g><path d="M 4.21875 0 L 4.21875 -18.421875 L 7.78125 -18.421875 L 8.25 -15.875 C 9.195312 -16.925781 10.222656 -17.691406 11.328125 -18.171875 C 12.441406 -18.648438 13.695312 -18.890625 15.09375 -18.890625 C 16.976562 -18.890625 18.601562 -18.398438 19.96875 -17.421875 L 18.265625 -13.46875 C 17.703125 -13.882812 17.128906 -14.1875 16.546875 -14.375 C 15.960938 -14.570312 15.335938 -14.671875 14.671875 -14.671875 C 12.472656 -14.671875 10.507812 -13.613281 8.78125 -11.5 L 8.78125 0 Z M 4.21875 0 "/></g></g></g><g fill="#bfe021" fill-opacity="1"><g transform="translate(186.521086, 254.40924)"><g><path d="M 14.3125 0.46875 C 9.570312 0.46875 7.203125 -1.894531 7.203125 -6.625 L 7.203125 -14.3125 L 1.8125 -14.3125 L 1.8125 -18.421875 L 7.203125 -18.421875 L 7.203125 -23.640625 L 11.765625 -25.625 L 11.765625 -18.421875 L 18.734375 -18.421875 L 18.734375 -14.3125 L 11.765625 -14.3125 L 11.765625 -7.3125 C 11.765625 -6 12.015625 -5.070312 12.515625 -4.53125 C 13.023438 -3.988281 13.898438 -3.71875 15.140625 -3.71875 C 16.660156 -3.71875 18.128906 -4.15625 19.546875 -5.03125 L 20.703125 -1.15625 C 18.847656 -0.0703125 16.71875 0.46875 14.3125 0.46875 Z M 14.3125 0.46875 "/></g></g></g><g fill="#bfe021" fill-opacity="1"><g transform="translate(208.964379, 254.40924)"><g><path d="M 12.265625 0.46875 C 9.066406 0.46875 6.550781 -0.394531 4.71875 -2.125 C 2.882812 -3.851562 1.96875 -6.21875 1.96875 -9.21875 C 1.96875 -11.144531 2.367188 -12.832031 3.171875 -14.28125 C 3.972656 -15.726562 5.082031 -16.859375 6.5 -17.671875 C 7.914062 -18.484375 9.566406 -18.890625 11.453125 -18.890625 C 13.285156 -18.890625 14.878906 -18.507812 16.234375 -17.75 C 17.585938 -16.988281 18.640625 -15.921875 19.390625 -14.546875 C 20.140625 -13.179688 20.515625 -11.582031 20.515625 -9.75 C 20.515625 -9.414062 20.5 -9.070312 20.46875 -8.71875 C 20.445312 -8.375 20.394531 -8.007812 20.3125 -7.625 L 6.625 -7.625 C 6.875 -6.207031 7.476562 -5.148438 8.4375 -4.453125 C 9.394531 -3.753906 10.6875 -3.40625 12.3125 -3.40625 C 14.238281 -3.40625 16.132812 -4 18 -5.1875 L 19.703125 -1.8125 C 18.515625 -1.019531 17.328125 -0.441406 16.140625 -0.078125 C 14.953125 0.285156 13.660156 0.46875 12.265625 0.46875 Z M 6.65625 -11.0625 L 16.015625 -11.0625 C 15.816406 -12.351562 15.320312 -13.332031 14.53125 -14 C 13.75 -14.675781 12.710938 -15.015625 11.421875 -15.015625 C 10.148438 -15.015625 9.109375 -14.675781 8.296875 -14 C 7.484375 -13.332031 6.9375 -12.351562 6.65625 -11.0625 Z M 6.65625 -11.0625 "/></g></g></g><g fill="#bfe021" fill-opacity="1"><g transform="translate(231.407673, 254.40924)"><g><path d="M 1.28125 0 L 8.328125 -9.40625 L 1.46875 -18.421875 L 7.203125 -18.421875 L 11.578125 -12.6875 L 15.75 -18.421875 L 20.984375 -18.421875 L 14.125 -9.28125 L 21.171875 0 L 15.4375 0 L 10.875 -6 L 6.5 0 Z M 1.28125 0 "/></g></g></g><path fill="#bfe021" d="M 162.726562 129.640625 C 162.726562 124.3125 167.050781 119.988281 172.378906 119.988281 L 176.515625 119.988281 C 179.566406 119.988281 182.03125 122.453125 182.03125 125.503906 L 182.03125 202.726562 C 182.03125 205.777344 179.566406 208.242188 176.515625 208.242188 L 171 208.242188 C 165.863281 208.242188 161.535156 204.726562 160.3125 199.96875 C 160.191406 199.96875 160.089844 199.96875 159.96875 199.96875 C 152.347656 199.96875 146.175781 193.796875 146.175781 186.179688 C 146.175781 183.078125 147.210938 180.214844 148.933594 177.90625 C 145.589844 175.386719 143.417969 171.390625 143.417969 166.875 C 143.417969 161.546875 146.453125 156.910156 150.867188 154.617188 C 149.640625 152.546875 148.933594 150.136719 148.933594 147.566406 C 148.933594 139.949219 155.105469 133.777344 162.726562 133.777344 Z M 209.613281 129.640625 L 209.613281 133.777344 C 217.230469 133.777344 223.402344 139.949219 223.402344 147.566406 C 223.402344 150.152344 222.695312 152.566406 221.472656 154.617188 C 225.902344 156.910156 228.917969 161.53125 228.917969 166.875 C 228.917969 171.390625 226.746094 175.386719 223.402344 177.90625 C 225.125 180.214844 226.160156 183.078125 226.160156 186.179688 C 226.160156 193.796875 219.988281 199.96875 212.371094 199.96875 C 212.25 199.96875 212.144531 199.96875 212.023438 199.96875 C 210.800781 204.726562 206.472656 208.242188 201.335938 208.242188 L 195.820312 208.242188 C 192.769531 208.242188 190.304688 205.777344 190.304688 202.726562 L 190.304688 125.503906 C 190.304688 122.453125 192.769531 119.988281 195.820312 119.988281 L 199.957031 119.988281 C 205.285156 119.988281 209.613281 124.3125 209.613281 129.640625 Z M 209.613281 129.640625 " fill-opacity="1" fill-rule="nonzero"/></svg>